<svg width="32" height="32" viewBox="0 0 32 32" fill="none" xmlns="http://www.w3.org/2000/svg">
<path d="M7 8L32 0L24.5 23L0 32L7 8Z" fill="#0B1E3D"/>
<path d="M11.3311 18.7441V21H9.24609V18.7441H11.3311ZM15.002 9.93262V11.375H12.1582V9.93262H15.002ZM15.002 11.9287V19.1064C15.002 19.9495 14.9837 20.5215 14.9473 20.8223C14.9154 21.1185 14.8105 21.3783 14.6328 21.6016C14.4596 21.8294 14.2249 21.998 13.9287 22.1074C13.637 22.2168 13.1973 22.2715 12.6094 22.2715H11.543V20.8223C11.8711 20.8223 12.0557 20.7858 12.0967 20.7129C12.1377 20.64 12.1582 20.1842 12.1582 19.3457V11.9287H15.002ZM21.6396 14.8271H19.1924V14.335C19.1924 13.9157 19.1673 13.6514 19.1172 13.542C19.0716 13.4281 18.9531 13.3711 18.7617 13.3711C18.6068 13.3711 18.4906 13.4235 18.4131 13.5283C18.3356 13.6286 18.2969 13.7812 18.2969 13.9863C18.2969 14.2643 18.3151 14.4694 18.3516 14.6016C18.3926 14.7292 18.5088 14.8704 18.7002 15.0254C18.8962 15.1803 19.2949 15.4059 19.8965 15.7021C20.6986 16.0941 21.2249 16.4632 21.4756 16.8096C21.7262 17.1559 21.8516 17.6595 21.8516 18.3203C21.8516 19.0586 21.7559 19.6169 21.5645 19.9951C21.373 20.3688 21.0518 20.6582 20.6006 20.8633C20.154 21.0638 19.6139 21.1641 18.9805 21.1641C18.2786 21.1641 17.6771 21.0547 17.1758 20.8359C16.679 20.6172 16.3372 20.321 16.1504 19.9473C15.9635 19.5736 15.8701 19.0085 15.8701 18.252V17.8145H18.3174V18.3887C18.3174 18.8763 18.347 19.193 18.4062 19.3389C18.4701 19.4847 18.5931 19.5576 18.7754 19.5576C18.9714 19.5576 19.1081 19.5098 19.1855 19.4141C19.263 19.3138 19.3018 19.1064 19.3018 18.792C19.3018 18.359 19.2516 18.0879 19.1514 17.9785C19.0465 17.8691 18.5111 17.5456 17.5449 17.0078C16.7337 16.5521 16.2393 16.1396 16.0615 15.7705C15.8838 15.3968 15.7949 14.9548 15.7949 14.4443C15.7949 13.7197 15.8906 13.1865 16.082 12.8447C16.2734 12.4984 16.597 12.2318 17.0527 12.0449C17.513 11.8581 18.0462 11.7646 18.6523 11.7646C19.2539 11.7646 19.7643 11.8421 20.1836 11.9971C20.6074 12.1475 20.931 12.348 21.1543 12.5986C21.3822 12.8493 21.5189 13.0817 21.5645 13.2959C21.6146 13.5101 21.6396 13.8451 21.6396 14.3008V14.8271Z" fill="white"/>
</svg>
