<svg xmlns="http://www.w3.org/2000/svg" width="100%" height="1100" viewBox="0 0 1440 1100" preserveAspectRatio="none">
  <g fill="rgba(255,255,255,0.08)">
    <!-- Layer 1 -->
    <path d="M0 400 C 300 350, 600 450, 900 400 C 1200 350, 1440 450, 1440 400 L1440 1100 L0 1100 Z">
      <animate attributeName="d" dur="3s" repeatCount="indefinite"
        values="
        M0 400 C 300 350, 600 450, 900 400 C 1200 350, 1440 450, 1440 400 L1440 1100 L0 1100 Z;
        M0 410 C 300 360, 600 460, 900 410 C 1200 360, 1440 460, 1440 410 L1440 1100 L0 1100 Z;
        M0 400 C 300 350, 600 450, 900 400 C 1200 350, 1440 450, 1440 400 L1440 1100 L0 1100 Z
        "
      />
    </path>

    <!-- Layer 2 -->
    <path d="M0 600 C 300 650, 600 550, 900 600 C 1200 650, 1440 550, 1440 600 L1440 1100 L0 1100 Z" opacity="0.12">
      <animate attributeName="d" dur="3s" repeatCount="indefinite"
        values="
        M0 600 C 300 650, 600 550, 900 600 C 1200 650, 1440 550, 1440 600 L1440 1100 L0 1100 Z;
        M0 610 C 300 660, 600 560, 900 610 C 1200 660, 1440 560, 1440 610 L1440 1100 L0 1100 Z;
        M0 600 C 300 650, 600 550, 900 600 C 1200 650, 1440 550, 1440 600 L1440 1100 L0 1100 Z
        "
      />
    </path>

    <!-- Layer 3 -->
    <path d="M0 800 C 300 850, 600 750, 900 800 C 1200 850, 1440 750, 1440 800 L1440 1100 L0 1100 Z" opacity="0.10">
      <animate attributeName="d" dur="3s" repeatCount="indefinite"
        values="
        M0 800 C 300 850, 600 750, 900 800 C 1200 850, 1440 750, 1440 800 L1440 1100 L0 1100 Z;
        M0 810 C 300 860, 600 760, 900 810 C 1200 860, 1440 760, 1440 810 L1440 1100 L0 1100 Z;
        M0 800 C 300 850, 600 750, 900 800 C 1200 850, 1440 750, 1440 800 L1440 1100 L0 1100 Z
        "
      />
    </path>

    <!-- Layer 4 -->
    <path d="M0 950 C 300 900, 600 1000, 900 950 C 1200 900, 1440 1000, 1440 950 L1440 1100 L0 1100 Z" opacity="0.08">
      <animate attributeName="d" dur="5s" repeatCount="indefinite"
        values="
        M0 950 C 300 900, 600 1000, 900 950 C 1200 900, 1440 1000, 1440 950 L1440 1100 L0 1100 Z;
        M0 960 C 300 910, 600 1010, 900 960 C 1200 910, 1440 1010, 1440 960 L1440 1100 L0 1100 Z;
        M0 950 C 300 900, 600 1000, 900 950 C 1200 900, 1440 1000, 1440 950 L1440 1100 L0 1100 Z
        "
      />
    </path>
  </g>
</svg>
